<?xml version="1.0" encoding="utf-8"?>
<!-- Generator: Adobe Illustrator 27.1.0, SVG Export Plug-In . SVG Version: 6.00 Build 0)  -->
<svg version="1.1" id="Capa_1" xmlns="http://www.w3.org/2000/svg" xmlns:xlink="http://www.w3.org/1999/xlink" x="0px" y="0px"
	 viewBox="0 0 50 50" style="enable-background:new 0 0 50 50;" xml:space="preserve">
<style type="text/css">
	.st0{fill:#39A388;}
</style>
<g>
	<path class="st0" d="M0.5,5.3c0-0.8,0.7-1.5,1.5-1.5H48c0.8,0,1.5,0.7,1.5,1.5v6.1c0,0.8-0.7,1.5-1.5,1.5H2c-0.8,0-1.5-0.7-1.5-1.5
		V5.3z"/>
	<path class="st0" d="M0.5,21.9c0-0.8,0.7-1.5,1.5-1.5H48c0.8,0,1.5,0.7,1.5,1.5v6.1c0,0.8-0.7,1.5-1.5,1.5H2
		c-0.8,0-1.5-0.7-1.5-1.5V21.9z"/>
	<path class="st0" d="M0.5,38.5C0.5,37.7,1.2,37,2,37H48c0.8,0,1.5,0.7,1.5,1.5v6.1c0,0.8-0.7,1.5-1.5,1.5H2c-0.8,0-1.5-0.7-1.5-1.5
		V38.5z"/>
</g>
</svg>
